<svg width="20" height="20" viewBox="0 0 20 20" fill="none" xmlns="http://www.w3.org/2000/svg">
<path d="M19.5533 10.4467C19.439 10.4467 19.3246 10.4031 19.2374 10.3159L10 1.07853L0.76264 10.3159C0.588178 10.4903 0.305318 10.4903 0.130847 10.3159C-0.0436156 10.1414 -0.0436156 9.85856 0.130847 9.68415L9.68415 0.130842C9.76787 0.04706 9.88153 0 10 0C10.1185 0 10.2321 0.04706 10.3159 0.130842L19.8692 9.68415C20.0436 9.85856 20.0436 10.1414 19.8692 10.3159C19.7819 10.4031 19.6676 10.4467 19.5533 10.4467Z" fill="#4C4C4C"/>
<path d="M19.5533 10.4467C19.439 10.4467 19.3246 10.4031 19.2374 10.3159L10 1.07853L0.76264 10.3159C0.588178 10.4903 0.305318 10.4903 0.130847 10.3159C-0.0436156 10.1414 -0.0436156 9.85856 0.130847 9.68415L9.68415 0.130842C9.76787 0.04706 9.88153 0 10 0C10.1185 0 10.2321 0.04706 10.3159 0.130842L19.8692 9.68415C20.0436 9.85856 20.0436 10.1414 19.8692 10.3159C19.7819 10.4031 19.6676 10.4467 19.5533 10.4467Z" stroke="#00837A"/>
<path d="M16.8234 20H3.17599C2.92921 20 2.72925 19.8001 2.72925 19.5533V10C2.72925 9.75334 2.92921 9.55328 3.17599 9.55328C3.42268 9.55328 3.62274 9.75334 3.62274 10V19.1065H16.3766V10C16.3766 9.75334 16.5767 9.55328 16.8234 9.55328C17.0701 9.55328 17.2701 9.75334 17.2701 10V19.5533C17.2701 19.8001 17.0701 20 16.8234 20Z" fill="#4C4C4C"/>
<path d="M16.8234 20H3.17599C2.92921 20 2.72925 19.8001 2.72925 19.5533V10C2.72925 9.75334 2.92921 9.55328 3.17599 9.55328C3.42268 9.55328 3.62274 9.75334 3.62274 10V19.1065H16.3766V10C16.3766 9.75334 16.5767 9.55328 16.8234 9.55328C17.0701 9.55328 17.2701 9.75334 17.2701 10V19.5533C17.2701 19.8001 17.0701 20 16.8234 20Z" stroke="#00837A"/>
<mask id="path-3-inside-1_861_17331" fill="white">
<path fill-rule="evenodd" clip-rule="evenodd" d="M8.15032 19.1065H11.8424V14.0984H8.15032V19.1065ZM12.2891 20H7.70358C7.45689 20 7.25684 19.8001 7.25684 19.5533V13.6517C7.25684 13.405 7.45689 13.205 7.70358 13.205H12.2891C12.5358 13.205 12.7359 13.405 12.7359 13.6517V19.5533C12.7359 19.8001 12.5358 20 12.2891 20Z"/>
</mask>
<path fill-rule="evenodd" clip-rule="evenodd" d="M8.15032 19.1065H11.8424V14.0984H8.15032V19.1065ZM12.2891 20H7.70358C7.45689 20 7.25684 19.8001 7.25684 19.5533V13.6517C7.25684 13.405 7.45689 13.205 7.70358 13.205H12.2891C12.5358 13.205 12.7359 13.405 12.7359 13.6517V19.5533C12.7359 19.8001 12.5358 20 12.2891 20Z" fill="#4C4C4C"/>
<path d="M8.15032 19.1065H6.15032V21.1065H8.15032V19.1065ZM11.8424 19.1065V21.1065H13.8424V19.1065H11.8424ZM11.8424 14.0984H13.8424V12.0984H11.8424V14.0984ZM8.15032 14.0984V12.0984H6.15032V14.0984H8.15032ZM8.15032 21.1065H11.8424V17.1065H8.15032V21.1065ZM13.8424 19.1065V14.0984H9.84239V19.1065H13.8424ZM11.8424 12.0984H8.15032V16.0984H11.8424V12.0984ZM6.15032 14.0984V19.1065H10.1503V14.0984H6.15032ZM12.2891 18H7.70358V22H12.2891V18ZM7.70358 18C8.5612 18 9.25684 18.6952 9.25684 19.5533H5.25684C5.25684 20.9049 6.35258 22 7.70358 22V18ZM9.25684 19.5533V13.6517H5.25684V19.5533H9.25684ZM9.25684 13.6517C9.25684 14.5096 8.56146 15.205 7.70358 15.205V11.205C6.35232 11.205 5.25684 12.3004 5.25684 13.6517H9.25684ZM7.70358 15.205H12.2891V11.205H7.70358V15.205ZM12.2891 15.205C11.4313 15.205 10.7359 14.5096 10.7359 13.6517H14.7359C14.7359 12.3004 13.6404 11.205 12.2891 11.205V15.205ZM10.7359 13.6517V19.5533H14.7359V13.6517H10.7359ZM10.7359 19.5533C10.7359 18.6952 11.4315 18 12.2891 18V22C13.6401 22 14.7359 20.9049 14.7359 19.5533H10.7359Z" fill="#4C4C4C" mask="url(#path-3-inside-1_861_17331)"/>
</svg>
