<svg width="18" height="20" viewBox="0 0 18 20" fill="none" xmlns="http://www.w3.org/2000/svg">
<path d="M13.6836 9.39844H4.66016C4.49473 9.39844 4.35938 9.53379 4.35938 9.69922V10.3008C4.35938 10.4662 4.49473 10.6016 4.66016 10.6016H13.6836C13.849 10.6016 13.9844 10.4662 13.9844 10.3008V9.69922C13.9844 9.53379 13.849 9.39844 13.6836 9.39844ZM13.6836 13.0078H4.66016C4.49473 13.0078 4.35938 13.1432 4.35938 13.3086V13.9102C4.35938 14.0756 4.49473 14.2109 4.66016 14.2109H13.6836C13.849 14.2109 13.9844 14.0756 13.9844 13.9102V13.3086C13.9844 13.1432 13.849 13.0078 13.6836 13.0078ZM16.4696 0.375C16.2515 0.375 16.0259 0.442676 15.8191 0.589307L14.1836 1.76611L12.7324 0.720898C12.4166 0.495312 12.0481 0.37876 11.6759 0.37876C11.3074 0.37876 10.939 0.491553 10.6231 0.720898L9.17188 1.76611L7.72061 0.720898C7.40479 0.495312 7.03257 0.37876 6.66411 0.37876C6.29565 0.37876 5.9272 0.491553 5.61138 0.720898L4.16011 1.76611L2.52461 0.589307C2.32158 0.442676 2.096 0.375 1.87417 0.375C1.29141 0.37876 0.75 0.837451 0.75 1.49917V18.5046C0.75 19.155 1.28765 19.625 1.87417 19.625C2.09224 19.625 2.31782 19.5573 2.52461 19.4107L4.16011 18.2339L5.61138 19.2791C5.9272 19.5047 6.29565 19.6212 6.66787 19.6212C7.03633 19.6212 7.40479 19.5084 7.72061 19.2791L9.17188 18.2339L10.6231 19.2791C10.939 19.5047 11.3112 19.6212 11.6796 19.6212C12.0481 19.6212 12.4166 19.5084 12.7324 19.2791L14.1836 18.2339L15.8191 19.4107C16.0222 19.5573 16.2478 19.625 16.4696 19.625C17.0523 19.625 17.59 19.1663 17.59 18.5046V1.49917C17.5938 0.844971 17.0561 0.375 16.4696 0.375ZM16.3906 18.3392L14.8867 17.2563L14.1836 16.7488L13.4806 17.2563L12.0293 18.3016C11.924 18.3768 11.8037 18.4144 11.6796 18.4144C11.5518 18.4144 11.4315 18.373 11.3262 18.2978L9.87495 17.2563L9.17188 16.7488L8.4688 17.2563L7.01753 18.3016C6.91226 18.3768 6.79194 18.4144 6.66411 18.4144C6.53628 18.4144 6.41597 18.373 6.31069 18.2978L4.85942 17.2563L4.15635 16.7488L3.45703 17.2563L1.95312 18.3617V1.66084L3.45703 2.74365L4.16011 3.25122L4.86318 2.74365L6.31445 1.69844C6.41973 1.62324 6.54004 1.58564 6.66411 1.58564C6.79194 1.58564 6.91226 1.627 7.01753 1.7022L8.4688 2.74365L9.17188 3.25122L9.87495 2.74365L11.3262 1.69844C11.4315 1.62324 11.5518 1.58564 11.6796 1.58564C11.8075 1.58564 11.9278 1.627 12.0331 1.7022L13.4843 2.74365L14.1874 3.25122L14.8867 2.74365L16.3906 1.66084V18.3392ZM13.6836 5.78906H4.66016C4.49473 5.78906 4.35938 5.92441 4.35938 6.08984V6.69141C4.35938 6.85684 4.49473 6.99219 4.66016 6.99219H13.6836C13.849 6.99219 13.9844 6.85684 13.9844 6.69141V6.08984C13.9844 5.92441 13.849 5.78906 13.6836 5.78906Z" fill="#00837A"/>
</svg>
